<svg xmlns="http://www.w3.org/2000/svg" viewBox="0 0 800 700" width="24" height="21">
<path d="M50,100 a 50 50 0 0 1 50 -50 h600 a 50 50 0 0 1 50 50 v500 a 50 50 0 0 1 -50 50 h-600 a 50 50 0 0 1 -50 -50
    v-500 m75,225 h100 v100 a 50 50 0 0 0 50 50 h250 a 50 50 0 0 0 50 -50 v-100 h100 v200 a 50 50 0 0 1 -50 50
    h-450 a 50 50 0 0 1 -50 -50 v-200 m175,-25 a 100 100 0 1 1 200 0 a 100 100 0 1 1 -200 0 m275,-75 v-100 h100 v100 h-100"
          fill-rule="evenodd" id="camera">
    </path>
</svg>
