<svg xmlns="http://www.w3.org/2000/svg" viewBox="0 0 800 700" width="24" height="21">
    <path d="M200,100 a 50 50 0 0 1 50 -50 h350 a 50 50 0 0 1 50 50 v410 a 50 50 0 0 1 -50 50  h-350 a 50 50 0 0 1 -50 -50 v-410
m175,-50 a 30 30 0 0 1 30 -30 h50 a 30 30 0 0 1 30 30
m50,80 a 30 30 0 0 1 30 30 v120 a 30 30 0 0 1 -30 30 h-210 a 30 30 0 0 1 -30 -30 v-120 a 30 30 0 0 1 30 -30 h210
m-30,270 a 30 30 0 0 1 60 0 a 30 30 0 0 1 -60 0
m-210,0 a 30 30 0 0 1 60 0 a 30 30 0 0 1 -60 0
m100,160 l-50 70 h-40 l55 -70
m100,0 l50 70 h40 l-55 -70" fill="#ffffff"
          fill-rule="evenodd"
          id="train">
    </path>

</svg>
