<svg xmlns="http://www.w3.org/2000/svg" viewBox="0 0 800 700" width="24" height="21">
    <path d="M250,250 a 50 75 0 0 1 50 -50 h250 a 50 75 0 0 1 50 50 l50 150
         h50 a 50 50 0 0 1 50 50 v 100
    a 50 50 0 0 1 -50 50  h-550 a 50 50 0 0 1 -50 -50
      v-100 a 50 50 0 0 1 50 -50 h50 l50 -150
      m25,50
      a 50 75 0 0 1 50 -50
      h200
      a 50 75 0 0 1 50 50 l25 100
      h-350 l25 -100
      m-50,300 a 50 50 0 0 1 100 0 a 50 50 0 0 1 -100 0 m300,0 a 50 50 0 0 1 100 0 a 50 50 0 0 1 -100 0"
          fill="#ffffff" fill-rule="evenodd"
          id="car">
    </path>
</svg>
